<?xml version="1.0" encoding="UTF-8"?>
<svg width="786px" height="192px" viewBox="0 0 786 192" version="1.1" xmlns="http://www.w3.org/2000/svg" xmlns:xlink="http://www.w3.org/1999/xlink">
    <!-- Generator: Sketch 63.1 (92452) - https://sketch.com -->
    <title>logo</title>
    <desc>Created with Sketch.</desc>
    <defs>
        <path d="M436.868539,137.974609 C448.279374,137.974609 455.825249,132.265039 459.690209,128.397266 L461.162575,133.370117 C461.714712,135.027734 462.266849,136.132813 464.291352,136.132813 L467.788221,136.132813 C469.628678,136.132813 471.285089,134.475195 471.285089,132.633398 L471.285089,91.7455078 C471.285089,70.1964844 466.683946,60.6191406 447.911282,60.6191406 C434.107853,60.6191406 423.433201,64.8552734 422.328926,65.4078125 C420.672515,66.1445313 419.568241,67.2496094 420.304423,69.4597656 L421.776789,74.0642578 C422.328926,75.721875 423.433201,76.6427734 425.273658,75.9060547 C428.586481,74.6167969 437.23663,71.8541016 447.359145,71.8541016 C457.849751,71.8541016 459.506163,78.1162109 459.322117,91.7455078 C459.322117,91.7455078 451.592197,89.3511719 443.678231,89.3511719 C424.721521,89.3511719 414.230915,99.8494141 414.230915,113.84707 C414.230915,128.581445 423.985338,137.974609 436.868539,137.974609 Z M438.893042,126.923828 C430.979076,126.923828 426.009841,121.214258 426.009841,113.84707 C426.009841,104.269727 433.37167,99.1126953 443.678231,99.1126953 C451.776243,99.1126953 456.929523,100.770313 459.138072,102.05957 L459.138072,116.609766 C456.009294,121.214258 448.095328,126.923828 438.893042,126.923828 Z M506.253777,191.386719 C508.094235,191.386719 509.750646,189.729102 509.750646,187.887305 L509.750646,131.89668 C509.750646,131.89668 517.296521,137.974609 529.443539,137.974609 C549.688569,137.974609 564.780318,121.030078 564.780318,99.4810547 C564.780318,78.3003906 550.05666,60.6191406 529.995676,60.6191406 C516.744384,60.6191406 508.646372,68.3546875 508.646372,68.3546875 L507.358052,64.8552734 C506.621869,63.0134766 506.069732,62.4609375 504.41332,62.4609375 L500.54836,62.4609375 C498.707903,62.4609375 497.051491,64.1185547 497.051491,65.9603516 L497.051491,187.887305 C497.051491,189.729102 498.707903,191.386719 500.54836,191.386719 L506.253777,191.386719 Z M527.787127,125.63457 C517.664612,125.63457 509.934692,119.188281 509.934692,119.188281 L509.934692,81.2472656 C509.934692,81.2472656 516.744384,72.2224609 528.707356,72.2224609 C543.431014,72.2224609 551.897117,84.9308594 551.897117,99.296875 C551.897117,114.03125 541.958648,125.63457 527.787127,125.63457 Z M616.313121,137.974609 C629.012276,137.974609 638.950746,133.001758 643.367843,129.502344 C646.128529,127.476367 645.392346,126.371289 644.104026,124.713672 C642.999751,123.240234 642.079523,121.950977 640.975249,120.477539 C639.502883,118.451563 638.398608,119.372461 635.821968,120.845898 C631.588917,123.424414 625.331362,126.371289 617.601441,126.371289 C604.534195,126.371289 593.675497,114.767969 592.939314,102.42793 L645.944483,102.42793 C647.600895,102.42793 649.07326,101.138672 649.257306,99.296875 C649.441352,98.0076172 649.625398,95.6132813 649.625398,94.3240234 C649.625398,74.9851563 635.637922,60.6191406 616.313121,60.6191406 C594.043588,60.6191406 580.240159,78.4845703 580.240159,99.296875 C580.240159,120.477539 594.043588,137.974609 616.313121,137.974609 Z M636.926243,92.1138672 L593.12336,92.1138672 C594.41168,80.6947266 603.982058,71.8541016 616.313121,71.8541016 C627.539911,71.8541016 636.374105,81.4314453 636.926243,92.1138672 Z M678.888668,136.132813 C680.729125,136.132813 682.385537,134.475195 682.385537,132.633398 L682.385537,83.4574219 C682.385537,83.4574219 688.459046,73.1433594 702.446521,73.1433594 C705.207207,73.1433594 707.967893,73.8800781 709.624304,74.6167969 C711.464761,75.3535156 713.121173,75.3535156 714.041402,72.9591797 L716.24995,66.6970703 C718.090408,61.5400391 708.888121,60.6191406 703.36675,60.6191406 C688.090954,60.6191406 681.281262,70.3806641 681.281262,70.3806641 L679.808897,65.0394531 C679.440805,63.3818359 678.152485,62.4609375 676.680119,62.4609375 L673.18325,62.4609375 C671.342793,62.4609375 669.686382,64.1185547 669.686382,65.9603516 L669.686382,132.633398 C669.686382,134.475195 671.342793,136.132813 673.18325,136.132813 L678.888668,136.132813 Z M756.555964,86.0359375 C758.396421,86.0359375 760.420924,84.9308594 760.420924,82.3523438 L760.420924,74.8009766 C760.420924,59.6982422 789.500149,57.6722656 789.500149,33.5447266 C789.500149,16.6001953 776.616948,5.36523438 757.476193,5.36523438 C734.286431,5.36523438 723.795825,21.5730469 723.795825,21.5730469 C722.691551,23.0464844 722.323459,25.0724609 723.795825,26.3617188 L727.292694,29.4927734 C728.949105,30.9662109 730.421471,30.9662109 732.077883,29.3085938 C735.758797,25.4408203 742.568489,16.784375 757.476193,16.784375 C769.439165,16.784375 775.69672,24.3357422 775.69672,32.9921875 C775.69672,53.8044922 748.089861,51.9626953 748.089861,74.8009766 L748.089861,82.5365234 C748.089861,84.5625 749.746272,86.0359375 751.58673,86.0359375 L756.555964,86.0359375 Z M753.795278,137.974609 C759.684742,137.974609 764.285885,133.185938 764.285885,127.476367 C764.285885,121.582617 759.684742,116.978125 753.795278,116.978125 C748.089861,116.978125 743.304672,121.582617 743.304672,127.476367 C743.304672,133.185938 748.089861,137.974609 753.795278,137.974609 Z" id="path-1"></path>
        <path d="M42.930666,193.228516 C65.2001988,193.228516 81.0281312,178.67832 81.0281312,163.391406 C81.0281312,147.367773 68.8811133,139.816406 53.4212724,139.816406 L26.9186879,139.816406 C20.108996,139.816406 16.796173,135.396094 16.796173,130.791602 C16.796173,123.424414 24.8941849,119.74082 24.8941849,119.74082 C24.8941849,119.74082 30.5996024,124.345313 42.3785288,124.345313 C61.3352386,124.345313 73.2982107,109.795117 73.2982107,93.0347656 C73.2982107,78.4845703 65.0161531,72.4066406 65.0161531,72.4066406 L74.9546223,70.3806641 C76.2429423,70.1964844 76.9791252,68.5388672 76.9791252,67.2496094 L76.9791252,64.1185547 C76.9791252,62.0925781 75.5067594,60.6191406 73.4822565,60.6191406 L42.3785288,60.6191406 C23.2377734,60.6191406 11.2748012,75.9060547 11.2748012,93.0347656 C11.2748012,103.901367 17.1642644,111.452734 17.1642644,111.452734 C17.1642644,111.452734 4.8332008,118.635742 4.8332008,132.633398 C4.8332008,144.052539 13.4833499,148.841211 18.2685388,150.130469 L18.2685388,150.683008 C16.4280815,151.788086 7.59388668,156.760937 7.59388668,167.811719 C7.59388668,179.967578 18.2685388,193.228516 42.930666,193.228516 Z M42.5625746,113.294531 C31.3357853,113.294531 23.2377734,104.822266 23.2377734,92.6664063 C23.2377734,80.5105469 31.3357853,72.0382812 42.5625746,72.0382812 C53.6053181,72.0382812 60.9671471,80.5105469 60.9671471,92.6664063 C60.9671471,104.822266 53.6053181,113.294531 42.5625746,113.294531 Z M42.7466203,181.256836 C30.2315109,181.256836 20.6611332,174.810547 20.6611332,165.969922 C20.6611332,155.10332 32.9921968,151.788086 32.9921968,151.788086 L53.4212724,151.788086 L53.4212724,151.788086 C66.3044732,151.788086 67.4087475,161.36543 67.4087475,163.759766 C67.4087475,174.442188 54.8936382,181.256836 42.7466203,181.256836 Z M127.959791,137.974609 C148.388867,137.974609 164.584891,120.293359 164.584891,99.1126953 C164.584891,78.3003906 148.388867,60.6191406 127.959791,60.6191406 C107.530716,60.6191406 91.3346918,78.3003906 91.3346918,99.1126953 C91.3346918,120.293359 107.530716,137.974609 127.959791,137.974609 Z M127.959791,126.00293 C114.524453,126.00293 104.033847,114.03125 104.033847,99.1126953 C104.033847,84.5625 114.524453,72.775 127.959791,72.775 C141.395129,72.775 151.885736,84.5625 151.885736,99.1126953 C151.885736,114.03125 141.395129,126.00293 127.959791,126.00293 Z M207.099453,137.974609 C215.749602,137.974609 225.688072,133.370117 228.264712,131.7125 C230.289215,130.423242 230.841352,129.318164 229.553032,127.108008 L226.792346,122.503516 C225.872117,121.030078 225.135934,119.925 222.375249,121.398438 C219.982654,122.687695 213.541054,125.450391 208.939911,125.450391 C204.706859,125.450391 202.866402,123.976953 202.866402,116.609766 L202.866402,73.5117188 L224.215706,73.5117188 C226.240209,73.5117188 227.712575,71.8541016 227.712575,70.0123047 L227.712575,65.9603516 C227.712575,63.934375 226.240209,62.4609375 224.215706,62.4609375 L202.866402,62.4609375 L202.866402,41.6486328 C202.866402,39.8068359 201.394036,38.1492187 199.553579,38.1492187 L193.664115,38.5175781 C191.823658,38.5175781 190.167247,40.1751953 190.167247,42.0169922 L190.167247,62.4609375 L180.780915,62.4609375 C178.756412,62.4609375 177.284046,63.934375 177.284046,65.9603516 L177.284046,70.0123047 C177.284046,71.8541016 178.756412,73.5117188 180.780915,73.5117188 L190.167247,73.5117188 L190.167247,117.714844 C190.167247,129.133984 192.375795,137.974609 207.099453,137.974609 Z" id="path-2"></path>
    </defs>
    <g id="Social" stroke="none" stroke-width="1" fill="none" fill-rule="evenodd">
        <g id="got-paper-outlines" transform="translate(-4.000000, -5.000000)">
            <g id="P-Roll" transform="translate(283.270378, 56.054688)" fill-rule="evenodd">
                <rect id="Roll---bottom" fill="#AAB5B8" transform="translate(56.814115, 63.261719) scale(-1, 1) translate(-56.814115, -63.261719) " x="22.4055666" y="41.640625" width="68.8170974" height="43.2421875"></rect>
                <rect id="Roll---top" fill="#FFFFFF" transform="translate(56.814115, 21.621094) scale(-1, 1) translate(-56.814115, -21.621094) " x="22.4055666" y="0" width="68.8170974" height="43.2421875"></rect>
                <ellipse id="Roll---left" fill="#D3DCDE" transform="translate(92.022863, 42.441406) scale(-1, 1) translate(-92.022863, -42.441406) " cx="92.0228628" cy="42.4414063" rx="23.2057654" ry="42.4414063"></ellipse>
                <ellipse id="Roll---right" fill="#FFFFFF" transform="translate(23.205765, 42.441406) scale(-1, 1) translate(-23.205765, -42.441406) " cx="23.2057654" cy="42.4414063" rx="23.2057654" ry="42.4414063"></ellipse>
                <ellipse id="Roll---inner" fill="#ADBAC1" transform="translate(92.823062, 42.441406) scale(-1, 1) translate(-92.823062, -42.441406) " cx="92.8230616" cy="42.4414062" rx="9.60238569" ry="18.4179688"></ellipse>
                <path d="M0,137.659302 C3.32947303,132.926299 7.33046707,130.531123 12.0029821,130.473776 C16.6754971,130.416428 20.4561239,133.621769 23.3448625,140.089798 C25.6344938,133.697364 29.3223892,130.492023 34.4085487,130.473776 C39.4947082,130.455529 43.8288579,133.66087 47.4109979,140.089798 C50.6459162,133.78547 54.4025787,130.58013 58.6809854,130.473776 C62.9593921,130.367422 66.3380961,132.762597 68.8170974,137.659302 L68.8170974,41.640625 L0,41.640625 L0,137.659302 Z" id="Path" fill="#FFFFFF"></path>
                <path d="M19.2047714,25.625 L19.2047714,30.4296875 L4.80119284,30.4296875 L4.80119284,25.625 L19.2047714,25.625 Z M41.610338,25.625 L41.610338,30.4296875 L27.2067594,30.4296875 L27.2067594,25.625 L41.610338,25.625 Z M64.0159046,25.625 L64.0159046,30.4296875 L49.612326,30.4296875 L49.612326,25.625 L64.0159046,25.625 Z" id="Combined-Shape" fill="#D6DFDE" transform="translate(34.408549, 28.027344) scale(-1, 1) translate(-34.408549, -28.027344) "></path>
                <path d="M19.2047714,80.078125 L19.2047714,84.8828125 L4.80119284,84.8828125 L4.80119284,80.078125 L19.2047714,80.078125 Z M41.610338,80.078125 L41.610338,84.8828125 L27.2067594,84.8828125 L27.2067594,80.078125 L41.610338,80.078125 Z M64.0159046,80.078125 L64.0159046,84.8828125 L49.612326,84.8828125 L49.612326,80.078125 L64.0159046,80.078125 Z" id="Combined-Shape" fill="#D6DFDE" transform="translate(34.408549, 82.480469) scale(-1, 1) translate(-34.408549, -82.480469) "></path>
            </g>
            <g id="aper?" fill-rule="nonzero">
                <use fill="#9B9B9B" xlink:href="#path-1"></use>
                <use fill="#FFFFFF" xlink:href="#path-1"></use>
            </g>
            <g id="got" fill-rule="nonzero">
                <use fill="#9B9B9B" xlink:href="#path-2"></use>
                <use fill="#FFFFFF" xlink:href="#path-2"></use>
            </g>
        </g>
    </g>
</svg>