<?xml version="1.0" encoding="UTF-8"?>
<svg width="786px" height="225px" viewBox="0 0 786 225" version="1.1" xmlns="http://www.w3.org/2000/svg" xmlns:xlink="http://www.w3.org/1999/xlink">
    <!-- Generator: Sketch 63.1 (92452) - https://sketch.com -->
    <title>logo-shadow</title>
    <desc>Created with Sketch.</desc>
    <g id="Social" stroke="none" stroke-width="1" fill="none" fill-rule="evenodd">
        <g id="logo-shadow">
            <g id="P-Roll" transform="translate(279.270378, 51.054688)">
                <ellipse id="Roll---right" fill="#FFFFFF" transform="translate(36.809145, 42.441406) scale(-1, 1) translate(-36.809145, -42.441406) " cx="36.8091451" cy="42.4414063" rx="36.8091451" ry="42.4414063"></ellipse>
                <rect id="Roll---bottom" fill="#AAB5B8" transform="translate(56.814115, 63.261719) scale(-1, 1) translate(-56.814115, -63.261719) " x="36.0089463" y="41.640625" width="41.610338" height="43.2421875"></rect>
                <rect id="Roll---top" fill="#FFFFFF" transform="translate(56.814115, 21.621094) scale(-1, 1) translate(-56.814115, -21.621094) " x="36.0089463" y="9.1038288e-14" width="41.610338" height="43.2421875"></rect>
                <ellipse id="Roll---left" fill="#D3DCDE" transform="translate(78.419483, 42.441406) scale(-1, 1) translate(-78.419483, -42.441406) " cx="78.4194831" cy="42.4414063" rx="36.8091451" ry="42.4414063"></ellipse>
                <ellipse id="Roll---inner" fill="#ADBAC1" transform="translate(80.019881, 42.441406) scale(-1, 1) translate(-80.019881, -42.441406) " cx="80.0198807" cy="42.4414063" rx="15.2037773" ry="18.4179688"></ellipse>
                <path d="M0,137.659302 C2.01316974,132.926299 4.43237544,130.531123 7.25761709,130.473776 C10.0828587,130.416428 12.3688191,133.621769 14.1154982,140.089798 C15.4999265,133.697364 17.7298167,130.492023 20.805169,130.473776 C23.8805212,130.455529 26.5011699,133.66087 28.667115,140.089798 C30.6231121,133.78547 32.8945825,130.58013 35.481526,130.473776 C38.0684696,130.367422 40.1114069,132.762597 41.610338,137.659302 L41.610338,41.640625 L0,41.640625 L0,137.659302 Z" id="Path" fill="#FFFFFF"></path>
                <path d="M39.1758694,25.625 L37.673392,30.4296875 L30.4075547,30.4296875 L31.9100321,25.625 L39.1758694,25.625 Z M26.3726884,25.625 L24.870211,30.4296875 L17.6043738,30.4296875 L19.1068512,25.625 L26.3726884,25.625 Z M13.5695075,25.625 L12.0670301,30.4296875 L4.80119284,30.4296875 L6.30367024,25.625 L13.5695075,25.625 Z" id="Combined-Shape" fill="#D6DFDE"></path>
                <path d="M12.8031809,80.078125 L12.8031809,84.8828125 L4.80119284,84.8828125 L4.80119284,80.078125 L12.8031809,80.078125 Z M25.6063618,80.078125 L25.6063618,84.8828125 L17.6043738,84.8828125 L17.6043738,80.078125 L25.6063618,80.078125 Z M38.4095427,80.078125 L38.4095427,84.8828125 L30.4075547,84.8828125 L30.4075547,80.078125 L38.4095427,80.078125 Z" id="Combined-Shape" fill="#D6DFDE" transform="translate(21.605368, 82.480469) scale(-1, 1) translate(-21.605368, -82.480469) "></path>
            </g>
            <path d="M432.868539,132.974609 C444.279374,132.974609 451.825249,127.265039 455.690209,123.397266 L457.162575,128.370117 C457.714712,130.027734 458.266849,131.132813 460.291352,131.132813 L463.788221,131.132813 C465.628678,131.132813 467.285089,129.475195 467.285089,127.633398 L467.285089,86.7455078 C467.285089,65.1964844 462.683946,55.6191406 443.911282,55.6191406 C430.107853,55.6191406 419.433201,59.8552734 418.328926,60.4078125 C416.672515,61.1445313 415.568241,62.2496094 416.304423,64.4597656 L417.776789,69.0642578 C418.328926,70.721875 419.433201,71.6427734 421.273658,70.9060547 C424.586481,69.6167969 433.23663,66.8541016 443.359145,66.8541016 C453.849751,66.8541016 455.506163,73.1162109 455.322117,86.7455078 C455.322117,86.7455078 447.592197,84.3511719 439.678231,84.3511719 C420.721521,84.3511719 410.230915,94.8494141 410.230915,108.84707 C410.230915,123.581445 419.985338,132.974609 432.868539,132.974609 Z M434.893042,121.923828 C426.979076,121.923828 422.009841,116.214258 422.009841,108.84707 C422.009841,99.2697266 429.37167,94.1126953 439.678231,94.1126953 C447.776243,94.1126953 452.929523,95.7703125 455.138072,97.0595703 L455.138072,111.609766 C452.009294,116.214258 444.095328,121.923828 434.893042,121.923828 Z M502.253777,186.386719 C504.094235,186.386719 505.750646,184.729102 505.750646,182.887305 L505.750646,126.89668 C505.750646,126.89668 513.296521,132.974609 525.443539,132.974609 C545.688569,132.974609 560.780318,116.030078 560.780318,94.4810547 C560.780318,73.3003906 546.05666,55.6191406 525.995676,55.6191406 C512.744384,55.6191406 504.646372,63.3546875 504.646372,63.3546875 L503.358052,59.8552734 C502.621869,58.0134766 502.069732,57.4609375 500.41332,57.4609375 L496.54836,57.4609375 C494.707903,57.4609375 493.051491,59.1185547 493.051491,60.9603516 L493.051491,182.887305 C493.051491,184.729102 494.707903,186.386719 496.54836,186.386719 L502.253777,186.386719 Z M523.787127,120.63457 C513.664612,120.63457 505.934692,114.188281 505.934692,114.188281 L505.934692,76.2472656 C505.934692,76.2472656 512.744384,67.2224609 524.707356,67.2224609 C539.431014,67.2224609 547.897117,79.9308594 547.897117,94.296875 C547.897117,109.03125 537.958648,120.63457 523.787127,120.63457 Z M612.313121,132.974609 C625.012276,132.974609 634.950746,128.001758 639.367843,124.502344 C642.128529,122.476367 641.392346,121.371289 640.104026,119.713672 C638.999751,118.240234 638.079523,116.950977 636.975249,115.477539 C635.502883,113.451563 634.398608,114.372461 631.821968,115.845898 C627.588917,118.424414 621.331362,121.371289 613.601441,121.371289 C600.534195,121.371289 589.675497,109.767969 588.939314,97.4279297 L641.944483,97.4279297 C643.600895,97.4279297 645.07326,96.1386719 645.257306,94.296875 C645.441352,93.0076172 645.625398,90.6132813 645.625398,89.3240234 C645.625398,69.9851563 631.637922,55.6191406 612.313121,55.6191406 C590.043588,55.6191406 576.240159,73.4845703 576.240159,94.296875 C576.240159,115.477539 590.043588,132.974609 612.313121,132.974609 Z M632.926243,87.1138672 L589.12336,87.1138672 C590.41168,75.6947266 599.982058,66.8541016 612.313121,66.8541016 C623.539911,66.8541016 632.374105,76.4314453 632.926243,87.1138672 Z M674.888668,131.132813 C676.729125,131.132813 678.385537,129.475195 678.385537,127.633398 L678.385537,78.4574219 C678.385537,78.4574219 684.459046,68.1433594 698.446521,68.1433594 C701.207207,68.1433594 703.967893,68.8800781 705.624304,69.6167969 C707.464761,70.3535156 709.121173,70.3535156 710.041402,67.9591797 L712.24995,61.6970703 C714.090408,56.5400391 704.888121,55.6191406 699.36675,55.6191406 C684.090954,55.6191406 677.281262,65.3806641 677.281262,65.3806641 L675.808897,60.0394531 C675.440805,58.3818359 674.152485,57.4609375 672.680119,57.4609375 L669.18325,57.4609375 C667.342793,57.4609375 665.686382,59.1185547 665.686382,60.9603516 L665.686382,127.633398 C665.686382,129.475195 667.342793,131.132813 669.18325,131.132813 L674.888668,131.132813 Z M752.555964,81.0359375 C754.396421,81.0359375 756.420924,79.9308594 756.420924,77.3523438 L756.420924,69.8009766 C756.420924,54.6982422 785.500149,52.6722656 785.500149,28.5447266 C785.500149,11.6001953 772.616948,0.365234375 753.476193,0.365234375 C730.286431,0.365234375 719.795825,16.5730469 719.795825,16.5730469 C718.691551,18.0464844 718.323459,20.0724609 719.795825,21.3617188 L723.292694,24.4927734 C724.949105,25.9662109 726.421471,25.9662109 728.077883,24.3085938 C731.758797,20.4408203 738.568489,11.784375 753.476193,11.784375 C765.439165,11.784375 771.69672,19.3357422 771.69672,27.9921875 C771.69672,48.8044922 744.089861,46.9626953 744.089861,69.8009766 L744.089861,77.5365234 C744.089861,79.5625 745.746272,81.0359375 747.58673,81.0359375 L752.555964,81.0359375 Z M749.795278,132.974609 C755.684742,132.974609 760.285885,128.185938 760.285885,122.476367 C760.285885,116.582617 755.684742,111.978125 749.795278,111.978125 C744.089861,111.978125 739.304672,116.582617 739.304672,122.476367 C739.304672,128.185938 744.089861,132.974609 749.795278,132.974609 Z" id="aper?" fill="#ADBAC1" fill-rule="nonzero"></path>
            <path d="M38.930666,188.228516 C61.2001988,188.228516 77.0281312,173.67832 77.0281312,158.391406 C77.0281312,142.367773 64.8811133,134.816406 49.4212724,134.816406 L22.9186879,134.816406 C16.108996,134.816406 12.796173,130.396094 12.796173,125.791602 C12.796173,118.424414 20.8941849,114.74082 20.8941849,114.74082 C20.8941849,114.74082 26.5996024,119.345313 38.3785288,119.345313 C57.3352386,119.345313 69.2982107,104.795117 69.2982107,88.0347656 C69.2982107,73.4845703 61.0161531,67.4066406 61.0161531,67.4066406 L70.9546223,65.3806641 C72.2429423,65.1964844 72.9791252,63.5388672 72.9791252,62.2496094 L72.9791252,59.1185547 C72.9791252,57.0925781 71.5067594,55.6191406 69.4822565,55.6191406 L38.3785288,55.6191406 C19.2377734,55.6191406 7.27480119,70.9060547 7.27480119,88.0347656 C7.27480119,98.9013672 13.1642644,106.452734 13.1642644,106.452734 C13.1642644,106.452734 0.833200795,113.635742 0.833200795,127.633398 C0.833200795,139.052539 9.4833499,143.841211 14.2685388,145.130469 L14.2685388,145.683008 C12.4280815,146.788086 3.59388668,151.760938 3.59388668,162.811719 C3.59388668,174.967578 14.2685388,188.228516 38.930666,188.228516 Z M38.5625746,108.294531 C27.3357853,108.294531 19.2377734,99.8222656 19.2377734,87.6664063 C19.2377734,75.5105469 27.3357853,67.0382813 38.5625746,67.0382813 C49.6053181,67.0382813 56.9671471,75.5105469 56.9671471,87.6664063 C56.9671471,99.8222656 49.6053181,108.294531 38.5625746,108.294531 Z M38.7466203,176.256836 C26.2315109,176.256836 16.6611332,169.810547 16.6611332,160.969922 C16.6611332,150.10332 28.9921968,146.788086 28.9921968,146.788086 L49.4212724,146.788086 L49.4212724,146.788086 C62.3044732,146.788086 63.4087475,156.36543 63.4087475,158.759766 C63.4087475,169.442188 50.8936382,176.256836 38.7466203,176.256836 Z M123.959791,132.974609 C144.388867,132.974609 160.584891,115.293359 160.584891,94.1126953 C160.584891,73.3003906 144.388867,55.6191406 123.959791,55.6191406 C103.530716,55.6191406 87.3346918,73.3003906 87.3346918,94.1126953 C87.3346918,115.293359 103.530716,132.974609 123.959791,132.974609 Z M123.959791,121.00293 C110.524453,121.00293 100.033847,109.03125 100.033847,94.1126953 C100.033847,79.5625 110.524453,67.775 123.959791,67.775 C137.395129,67.775 147.885736,79.5625 147.885736,94.1126953 C147.885736,109.03125 137.395129,121.00293 123.959791,121.00293 Z M203.099453,132.974609 C211.749602,132.974609 221.688072,128.370117 224.264712,126.7125 C226.289215,125.423242 226.841352,124.318164 225.553032,122.108008 L222.792346,117.503516 C221.872117,116.030078 221.135934,114.925 218.375249,116.398438 C215.982654,117.687695 209.541054,120.450391 204.939911,120.450391 C200.706859,120.450391 198.866402,118.976953 198.866402,111.609766 L198.866402,68.5117188 L220.215706,68.5117188 C222.240209,68.5117188 223.712575,66.8541016 223.712575,65.0123047 L223.712575,60.9603516 C223.712575,58.934375 222.240209,57.4609375 220.215706,57.4609375 L198.866402,57.4609375 L198.866402,36.6486328 C198.866402,34.8068359 197.394036,33.1492188 195.553579,33.1492188 L189.664115,33.5175781 C187.823658,33.5175781 186.167247,35.1751953 186.167247,37.0169922 L186.167247,57.4609375 L176.780915,57.4609375 C174.756412,57.4609375 173.284046,58.934375 173.284046,60.9603516 L173.284046,65.0123047 C173.284046,66.8541016 174.756412,68.5117188 176.780915,68.5117188 L186.167247,68.5117188 L186.167247,112.714844 C186.167247,124.133984 188.375795,132.974609 203.099453,132.974609 Z" id="got" fill="#ADBAC1" fill-rule="nonzero"></path>
        </g>
    </g>
</svg>