<?xml version="1.0" encoding="UTF-8"?>
<svg width="13px" height="16px" viewBox="0 0 13 16" version="1.1" xmlns="http://www.w3.org/2000/svg" xmlns:xlink="http://www.w3.org/1999/xlink">
    <!-- Generator: Sketch 63.1 (92452) - https://sketch.com -->
    <title>safari-pinned-tab</title>
    <desc>Created with Sketch.</desc>
    <g id="Icons" stroke="none" stroke-width="1" fill="none" fill-rule="evenodd">
        <g id="safari-pinned-tab" transform="translate(6.500000, 8.000000) scale(-1, 1) translate(-6.500000, -8.000000) " fill="#000000">
            <rect id="Roll---bottom" x="3" y="5" width="8" height="5"></rect>
            <rect id="Roll---top" x="3" y="0" width="8" height="5"></rect>
            <ellipse id="Roll---left" cx="2.5" cy="5" rx="2.5" ry="5"></ellipse>
            <ellipse id="Roll---right" cx="10.5" cy="5" rx="2.5" ry="5"></ellipse>
            <path d="M5,14 L13,14 L13,15.6416878 C12.7118156,14.9197986 12.3190407,14.5666936 11.8216751,14.5823726 C11.3243096,14.5980516 10.8875969,15.0705941 10.5115371,16 C10.0951126,15.052225 9.59126696,14.5796826 9,14.5823726 C8.40873304,14.5850626 7.98001453,15.0576051 7.71384448,16 C7.3780281,15.0464607 6.93852955,14.5739182 6.39534884,14.5823726 C5.85216812,14.590827 5.38705184,14.9439321 5,15.6416878 L5,14 Z" id="Sheet---bottom" transform="translate(9.000000, 15.000000) scale(-1, 1) translate(-9.000000, -15.000000) "></path>
            <rect id="Sheet---top" x="5" y="5" width="8" height="10"></rect>
            <ellipse id="Roll---inner" cx="2" cy="5" rx="1" ry="2"></ellipse>
            <path d="M7.7027027,3 L7.7027027,3.56159594 L6,3.56159594 L6,3 L7.7027027,3 Z M10.3513514,3 L10.3513514,3.56159594 L8.64864865,3.56159594 L8.64864865,3 L10.3513514,3 Z M13,3 L13,3.56159594 L11.2972973,3.56159594 L11.2972973,3 L13,3 Z" id="Combined-Shape"></path>
            <path d="M7.7027027,9 L7.7027027,9.56159594 L6,9.56159594 L6,9 L7.7027027,9 Z M10.3513514,9 L10.3513514,9.56159594 L8.64864865,9.56159594 L8.64864865,9 L10.3513514,9 Z M13,9 L13,9.56159594 L11.2972973,9.56159594 L11.2972973,9 L13,9 Z" id="Combined-Shape"></path>
        </g>
    </g>
</svg>