<?xml version="1.0" encoding="UTF-8"?>
<svg width="720px" height="240px" viewBox="0 0 720 240" version="1.1" xmlns="http://www.w3.org/2000/svg" xmlns:xlink="http://www.w3.org/1999/xlink">
    <!-- Generator: Sketch 64 (93537) - https://sketch.com -->
    <title>site-logo</title>
    <desc>Created with Sketch.</desc>
    <defs>
        <path d="M347.324056,109.706641 C356.396024,109.706641 362.395229,105.166836 365.467992,102.091484 L366.638569,106.045508 C367.077535,107.363516 367.516501,108.242188 369.126044,108.242188 L371.906163,108.242188 C373.369384,108.242188 374.686282,106.92418 374.686282,105.459727 L374.686282,72.9488672 C374.686282,55.8147656 371.028231,48.1996094 356.10338,48.1996094 C345.129225,48.1996094 336.642545,51.5678516 335.764612,52.0071875 C334.447714,52.5929688 333.569781,53.4716406 334.15507,55.2289844 L335.325646,58.8901172 C335.764612,60.208125 336.642545,60.9403516 338.105765,60.3545703 C340.739563,59.3294531 347.6167,57.1327734 355.664414,57.1327734 C364.004771,57.1327734 365.32167,62.1119141 365.175348,72.9488672 C365.175348,72.9488672 359.029821,71.0450781 352.737972,71.0450781 C337.666799,71.0450781 329.326441,79.3924609 329.326441,90.5223047 C329.326441,102.23793 337.081511,109.706641 347.324056,109.706641 Z M348.933598,100.919922 C342.64175,100.919922 338.691054,96.3801172 338.691054,90.5223047 C338.691054,82.9071484 344.543936,78.8066797 352.737972,78.8066797 C359.176143,78.8066797 363.273161,80.1246875 365.029026,81.1498047 L365.029026,92.7189844 C362.541551,96.3801172 356.249702,100.919922 348.933598,100.919922 Z M402.487475,152.175781 C403.950696,152.175781 405.267594,150.857773 405.267594,149.39332 L405.267594,104.873945 C405.267594,104.873945 411.266799,109.706641 420.924056,109.706641 C437.019483,109.706641 449.017893,96.2336719 449.017893,79.0995703 C449.017893,62.2583594 437.312127,48.1996094 421.363022,48.1996094 C410.827833,48.1996094 404.389662,54.3503125 404.389662,54.3503125 L403.365408,51.5678516 C402.780119,50.1033984 402.341153,49.6640625 401.024254,49.6640625 L397.951491,49.6640625 C396.48827,49.6640625 395.171372,50.9820703 395.171372,52.4465234 L395.171372,149.39332 C395.171372,150.857773 396.48827,152.175781 397.951491,152.175781 L402.487475,152.175781 Z M419.607157,99.8948047 C411.559443,99.8948047 405.413917,94.7692188 405.413917,94.7692188 L405.413917,64.6014844 C405.413917,64.6014844 410.827833,57.4256641 420.338767,57.4256641 C432.044533,57.4256641 438.775348,67.5303906 438.775348,78.953125 C438.775348,90.66875 430.873956,99.8948047 419.607157,99.8948047 Z M489.988072,109.706641 C500.084294,109.706641 507.985686,105.752617 511.497416,102.970156 C513.692247,101.359258 513.106958,100.480586 512.082704,99.1625781 C511.204771,97.9910156 510.473161,96.9658984 509.595229,95.7943359 C508.424652,94.1834375 507.54672,94.9156641 505.498211,96.0872266 C502.132803,98.1374609 497.157853,100.480586 491.012326,100.480586 C480.623459,100.480586 471.990457,91.2545312 471.405169,81.4426953 L513.545924,81.4426953 C514.862823,81.4426953 516.0334,80.4175781 516.179722,78.953125 C516.326044,77.9280078 516.472366,76.0242188 516.472366,74.9991016 C516.472366,59.6223438 505.351889,48.1996094 489.988072,48.1996094 C472.283101,48.1996094 461.308946,62.4048047 461.308946,78.953125 C461.308946,95.7943359 472.283101,109.706641 489.988072,109.706641 Z M506.376143,73.2417578 L471.551491,73.2417578 C472.575746,64.1621484 480.184493,57.1327734 489.988072,57.1327734 C498.913718,57.1327734 505.937177,64.7479297 506.376143,73.2417578 Z M539.737575,108.242188 C541.200795,108.242188 542.517694,106.92418 542.517694,105.459727 L542.517694,66.3588281 C542.517694,66.3588281 547.346322,58.1578906 558.466799,58.1578906 C560.66163,58.1578906 562.856461,58.7436719 564.17336,59.3294531 C565.636581,59.9152344 566.953479,59.9152344 567.685089,58.0114453 L569.440954,53.0323047 C570.904175,48.9318359 563.588072,48.1996094 559.19841,48.1996094 C547.053678,48.1996094 541.639761,55.9612109 541.639761,55.9612109 L540.469185,51.7142969 C540.176541,50.3962891 539.152286,49.6640625 537.98171,49.6640625 L535.20159,49.6640625 C533.73837,49.6640625 532.421471,50.9820703 532.421471,52.4465234 L532.421471,105.459727 C532.421471,106.92418 533.73837,108.242188 535.20159,108.242188 L539.737575,108.242188 Z M601.485487,68.4090625 C602.948708,68.4090625 604.55825,67.5303906 604.55825,65.4801563 L604.55825,59.4758984 C604.55825,47.4673828 627.677137,45.8564844 627.677137,26.6721484 C627.677137,13.1991797 617.434592,4.26601563 602.217097,4.26601563 C583.780517,4.26601563 575.440159,17.1532031 575.440159,17.1532031 C574.562227,18.3247656 574.269583,19.9356641 575.440159,20.9607813 L578.220278,23.4503516 C579.537177,24.6219141 580.707753,24.6219141 582.024652,23.3039063 C584.951093,20.2285547 590.36501,13.345625 602.217097,13.345625 C611.728032,13.345625 616.702982,19.3498828 616.702982,26.2328125 C616.702982,42.7811328 594.754672,41.3166797 594.754672,59.4758984 L594.754672,65.6266016 C594.754672,67.2375 596.071571,68.4090625 597.534791,68.4090625 L601.485487,68.4090625 Z M599.290656,109.706641 C603.972962,109.706641 607.631014,105.899063 607.631014,101.359258 C607.631014,96.6730078 603.972962,93.011875 599.290656,93.011875 C594.754672,93.011875 590.950298,96.6730078 590.950298,101.359258 C590.950298,105.899063 594.754672,109.706641 599.290656,109.706641 Z" id="path-1"></path>
        <path d="M34.1312127,153.640234 C51.8361829,153.640234 64.4198807,142.071055 64.4198807,129.916094 C64.4198807,117.175352 54.7626243,111.171094 42.4715706,111.171094 L21.4011928,111.171094 C15.9872763,111.171094 13.3534791,107.656406 13.3534791,103.995273 C13.3534791,98.1374609 19.7916501,95.2085547 19.7916501,95.2085547 C19.7916501,95.2085547 24.3276342,98.8696875 33.6922465,98.8696875 C48.7634195,98.8696875 58.2743539,87.3005078 58.2743539,73.9739844 C58.2743539,62.4048047 51.6898608,57.5721094 51.6898608,57.5721094 L59.5912525,55.9612109 C60.615507,55.8147656 61.2007952,54.4967578 61.2007952,53.4716406 L61.2007952,50.9820703 C61.2007952,49.3711719 60.0302187,48.1996094 58.4206759,48.1996094 L33.6922465,48.1996094 C18.4747515,48.1996094 8.9638171,60.3545703 8.9638171,73.9739844 C8.9638171,82.6142578 13.6461233,88.6185156 13.6461233,88.6185156 C13.6461233,88.6185156 3.84254473,94.3298828 3.84254473,105.459727 C3.84254473,114.539336 10.7196819,118.346914 14.5240557,119.372031 L14.5240557,119.811367 C13.060835,120.690039 6.03737575,124.644063 6.03737575,133.430781 C6.03737575,143.096172 14.5240557,153.640234 34.1312127,153.640234 Z M33.8385686,90.0829688 C24.9129225,90.0829688 18.4747515,83.3464844 18.4747515,73.6810938 C18.4747515,64.0157031 24.9129225,57.2792187 33.8385686,57.2792187 C42.6178926,57.2792187 48.4707753,64.0157031 48.4707753,73.6810938 C48.4707753,83.3464844 42.6178926,90.0829688 33.8385686,90.0829688 Z M33.9848907,144.121289 C24.0349901,144.121289 16.4262425,138.995703 16.4262425,131.966328 C16.4262425,123.326055 26.2298211,120.690039 26.2298211,120.690039 L42.4715706,120.690039 L42.4715706,120.690039 C52.7141153,120.690039 53.5920477,128.305195 53.5920477,130.208984 C53.5920477,138.702813 43.6421471,144.121289 33.9848907,144.121289 Z M101.732008,109.706641 C117.973757,109.706641 130.850099,95.6478906 130.850099,78.8066797 C130.850099,62.2583594 117.973757,48.1996094 101.732008,48.1996094 C85.4902584,48.1996094 72.6139165,62.2583594 72.6139165,78.8066797 C72.6139165,95.6478906 85.4902584,109.706641 101.732008,109.706641 Z M101.732008,100.187695 C91.050497,100.187695 82.7101392,90.66875 82.7101392,78.8066797 C82.7101392,67.2375 91.050497,57.865 101.732008,57.865 C112.413519,57.865 120.753877,67.2375 120.753877,78.8066797 C120.753877,90.66875 112.413519,100.187695 101.732008,100.187695 Z M164.650497,109.706641 C171.527634,109.706641 179.429026,106.045508 181.477535,104.7275 C183.087078,103.702383 183.526044,102.823711 182.501789,101.066367 L180.306958,97.4052344 C179.575348,96.2336719 178.99006,95.355 176.795229,96.5265625 C174.893042,97.5516797 169.771769,99.7483594 166.113718,99.7483594 C162.74831,99.7483594 161.285089,98.5767969 161.285089,92.7189844 L161.285089,58.4507813 L178.258449,58.4507813 C179.867992,58.4507813 181.038569,57.1327734 181.038569,55.6683203 L181.038569,52.4465234 C181.038569,50.835625 179.867992,49.6640625 178.258449,49.6640625 L161.285089,49.6640625 L161.285089,33.1157422 C161.285089,31.6512891 160.114513,30.3332812 158.651292,30.3332812 L153.968986,30.6261719 C152.505765,30.6261719 151.188867,31.9441797 151.188867,33.4086328 L151.188867,49.6640625 L143.726441,49.6640625 C142.116899,49.6640625 140.946322,50.835625 140.946322,52.4465234 L140.946322,55.6683203 C140.946322,57.1327734 142.116899,58.4507813 143.726441,58.4507813 L151.188867,58.4507813 L151.188867,93.5976562 C151.188867,102.677266 152.944732,109.706641 164.650497,109.706641 Z" id="path-2"></path>
    </defs>
    <g id="site-logo" stroke="none" stroke-width="1" fill="none" fill-rule="evenodd">
        <rect fill="#1660A6" x="0" y="0" width="720" height="240"></rect>
        <g id="got-paper-outlines" transform="translate(40.000000, 40.000000)">
            <g id="P-Roll" transform="translate(225.208748, 44.570312)" fill-rule="evenodd">
                <ellipse id="Roll---right" fill="#FFFFFF" transform="translate(29.264414, 33.746094) scale(-1, 1) translate(-29.264414, -33.746094) " cx="29.2644135" cy="33.7460938" rx="29.2644135" ry="33.7460938"></ellipse>
                <rect id="Roll---bottom" fill="#AAB5B8" transform="translate(45.168986, 50.300781) scale(-1, 1) translate(-45.168986, -50.300781) " x="28.6282306" y="33.109375" width="33.0815109" height="34.3828125"></rect>
                <rect id="Roll---top" fill="#FFFFFF" transform="translate(45.168986, 17.191406) scale(-1, 1) translate(-45.168986, -17.191406) " x="28.6282306" y="7.23865412e-14" width="33.0815109" height="34.3828125"></rect>
                <ellipse id="Roll---left" fill="#D3DCDE" transform="translate(62.345924, 33.746094) scale(-1, 1) translate(-62.345924, -33.746094) " cx="62.3459245" cy="33.7460938" rx="29.2644135" ry="33.7460938"></ellipse>
                <ellipse id="Roll---inner" fill="#ADBAC1" transform="translate(63.618290, 33.746094) scale(-1, 1) translate(-63.618290, -33.746094) " cx="63.6182903" cy="33.7460938" rx="12.0874751" ry="14.6445313"></ellipse>
                <path d="M0,109.455933 C1.60053246,105.692618 3.52387612,103.788162 5.77003098,103.742563 C8.01618583,103.696965 9.83359533,106.245602 11.2222595,111.388474 C12.3229229,106.305709 14.0957549,103.757072 16.5407555,103.742563 C18.985756,103.728055 21.0692531,106.276691 22.7912467,111.388474 C24.3463251,106.375764 26.1522146,103.827127 28.2089151,103.742563 C30.2656156,103.657999 31.8898142,105.562455 33.0815109,109.455933 L33.0815109,33.109375 L0,33.109375 L0,109.455933 Z" id="Path" fill="#FFFFFF"></path>
                <path d="M31.1460328,20.375 L29.9515166,24.1953125 L24.1749503,24.1953125 L25.3694665,20.375 L31.1460328,20.375 Z M20.9671063,20.375 L19.7725901,24.1953125 L13.9960239,24.1953125 L15.1905401,20.375 L20.9671063,20.375 Z M10.7881799,20.375 L9.59366371,24.1953125 L3.81709742,24.1953125 L5.01161361,20.375 L10.7881799,20.375 Z" id="Combined-Shape" fill="#D6DFDE"></path>
                <path d="M10.1789264,63.671875 L10.1789264,67.4921875 L3.81709742,67.4921875 L3.81709742,63.671875 L10.1789264,63.671875 Z M20.3578529,63.671875 L20.3578529,67.4921875 L13.9960239,67.4921875 L13.9960239,63.671875 L20.3578529,63.671875 Z M30.5367793,63.671875 L30.5367793,67.4921875 L24.1749503,67.4921875 L24.1749503,63.671875 L30.5367793,63.671875 Z" id="Combined-Shape" fill="#D6DFDE" transform="translate(17.176938, 65.582031) scale(-1, 1) translate(-17.176938, -65.582031) "></path>
            </g>
            <g id="aper?" fill-rule="nonzero">
                <use fill="#9B9B9B" xlink:href="#path-1"></use>
                <use fill="#FFFFFF" xlink:href="#path-1"></use>
            </g>
            <g id="got" fill-rule="nonzero">
                <use fill="#9B9B9B" xlink:href="#path-2"></use>
                <use fill="#FFFFFF" xlink:href="#path-2"></use>
            </g>
        </g>
    </g>
</svg>